<svg width="92" height="27" viewBox="0 0 92 27" fill="none" xmlns="http://www.w3.org/2000/svg">
<path d="M91.6301 23.1762C91.6301 24.6027 90.4505 25.7582 88.9915 25.7582H2.64205C1.18373 25.7582 0 24.6027 0 23.1762V2.5854C0 1.15955 1.18373 0 2.64205 0H88.9909C90.4506 0 91.6295 1.15955 91.6295 2.5854L91.6301 23.1762Z" fill="#18072B"/>
<path d="M20.1641 12.7347C20.1442 10.5778 21.9755 9.52849 22.0592 9.47964C21.0221 8.00537 19.4146 7.80394 18.8497 7.78788C17.4997 7.64936 16.1901 8.57554 15.5023 8.57554C14.8009 8.57554 13.7418 7.80127 12.6004 7.82402C11.1315 7.8461 9.75743 8.67525 9.0038 9.96281C7.44849 12.5881 8.60845 16.4461 10.0986 18.5682C10.8439 19.6074 11.7149 20.7679 12.855 20.727C13.9704 20.6822 14.387 20.0337 15.7329 20.0337C17.0666 20.0337 17.4578 20.727 18.6205 20.7009C19.8175 20.6822 20.5712 19.657 21.2905 18.6083C22.1519 17.4171 22.4978 16.244 22.5115 16.1838C22.4834 16.1744 20.1868 15.3198 20.1641 12.7347Z" fill="white"/>
<path d="M17.9678 6.39191C18.5676 5.66047 18.9781 4.66535 18.8642 3.65552C17.9959 3.69299 16.9101 4.24108 16.2848 4.95646C15.7316 5.58685 15.2374 6.62011 15.3651 7.5918C16.3404 7.66274 17.3418 7.11198 17.9678 6.39191Z" fill="white"/>
<path d="M36.3055 20.5777H34.7467L33.8929 17.9618H30.925L30.1117 20.5777H28.5941L31.5345 11.6719H33.3506L36.3055 20.5777ZM33.6355 16.8643L32.8633 14.5388C32.7816 14.3012 32.6286 13.7417 32.4028 12.8611H32.3753C32.2854 13.2398 32.1406 13.7993 31.9415 14.5388L31.1831 16.8643H33.6355Z" fill="white"/>
<path d="M43.8672 17.2879C43.8672 18.3801 43.5645 19.2433 42.9591 19.8771C42.4169 20.4412 41.7435 20.723 40.9398 20.723C40.0722 20.723 39.449 20.4191 39.0695 19.8115H39.042V23.1943H37.5787V16.27C37.5787 15.5834 37.5601 14.8788 37.5244 14.156H38.8114L38.8931 15.1739H38.9205C39.4085 14.407 40.1491 14.0242 41.143 14.0242C41.9199 14.0242 42.5686 14.3233 43.0875 14.9222C43.6077 15.5219 43.8672 16.3102 43.8672 17.2879ZM42.3764 17.3401C42.3764 16.7151 42.2322 16.1998 41.9426 15.7942C41.6262 15.3713 41.2013 15.1598 40.6687 15.1598C40.3077 15.1598 39.9796 15.2776 39.6865 15.5098C39.3927 15.744 39.2006 16.0499 39.1106 16.4286C39.0653 16.6053 39.0427 16.7499 39.0427 16.8636V17.9344C39.0427 18.4015 39.1896 18.7956 39.4833 19.1175C39.7771 19.4394 40.1587 19.6 40.6282 19.6C41.1794 19.6 41.6083 19.3926 41.9151 18.979C42.2226 18.5648 42.3764 18.0187 42.3764 17.3401Z" fill="white"/>
<path d="M51.4426 17.2879C51.4426 18.3801 51.1399 19.2433 50.5339 19.8771C49.9923 20.4412 49.319 20.723 48.5153 20.723C47.6477 20.723 47.0245 20.4191 46.6456 19.8115H46.6181V23.1943H45.1548V16.27C45.1548 15.5834 45.1363 14.8788 45.1006 14.156H46.3875L46.4692 15.1739H46.4967C46.984 14.407 47.7246 14.0242 48.7191 14.0242C49.4954 14.0242 50.144 14.3233 50.6643 14.9222C51.1825 15.5219 51.4426 16.3102 51.4426 17.2879ZM49.9518 17.3401C49.9518 16.7151 49.807 16.1998 49.5174 15.7942C49.2009 15.3713 48.7775 15.1598 48.2442 15.1598C47.8824 15.1598 47.555 15.2776 47.2613 15.5098C46.9675 15.744 46.776 16.0499 46.6861 16.4286C46.6415 16.6053 46.6181 16.7499 46.6181 16.8636V17.9344C46.6181 18.4015 46.765 18.7956 47.0574 19.1175C47.3512 19.4387 47.7328 19.6 48.2037 19.6C48.7548 19.6 49.1838 19.3926 49.4906 18.979C49.7981 18.5648 49.9518 18.0187 49.9518 17.3401Z" fill="white"/>
<path d="M59.9124 18.0803C59.9124 18.8379 59.6427 19.4542 59.1011 19.93C58.506 20.45 57.6776 20.7097 56.613 20.7097C55.6302 20.7097 54.8422 20.525 54.2458 20.1549L54.5848 18.9657C55.2273 19.3445 55.9322 19.5345 56.7002 19.5345C57.2514 19.5345 57.6803 19.4127 57.9885 19.1705C58.2953 18.9282 58.4484 18.603 58.4484 18.1975C58.4484 17.8361 58.3221 17.5316 58.0688 17.2847C57.8169 17.0377 57.3962 16.8082 56.8087 16.596C55.2094 16.0145 54.4105 15.1626 54.4105 14.0423C54.4105 13.3102 54.6905 12.7099 55.2513 12.2428C55.81 11.7751 56.5554 11.5415 57.4875 11.5415C58.3187 11.5415 59.0092 11.6827 59.5603 11.9644L59.1945 13.1275C58.6797 12.8545 58.0977 12.718 57.4463 12.718C56.9315 12.718 56.5293 12.8418 56.241 13.088C55.9974 13.3082 55.8752 13.5766 55.8752 13.8944C55.8752 14.2464 56.0145 14.5376 56.2946 14.7664C56.5382 14.9779 56.9809 15.2068 57.6234 15.4537C58.4093 15.7622 58.9865 16.1229 59.3578 16.5365C59.7278 16.9487 59.9124 17.4647 59.9124 18.0803Z" fill="white"/>
<path d="M64.7506 15.2267H63.1377V18.3446C63.1377 19.1376 63.4218 19.5338 63.9915 19.5338C64.253 19.5338 64.4699 19.5117 64.6415 19.4675L64.682 20.5509C64.3937 20.656 64.0142 20.7089 63.544 20.7089C62.9661 20.7089 62.5145 20.5369 62.1884 20.1936C61.8638 19.8496 61.7004 19.2728 61.7004 18.4623V15.2254H60.7395V14.1546H61.7004V12.9788L63.1377 12.5559V14.1546H64.7506V15.2267Z" fill="white"/>
<path d="M72.0282 17.3141C72.0282 18.3011 71.7385 19.1116 71.1606 19.7453C70.5545 20.3978 69.7501 20.723 68.7473 20.723C67.7809 20.723 67.0115 20.4105 66.4377 19.7855C65.8639 19.1604 65.577 18.3714 65.577 17.4205C65.577 16.4254 65.8721 15.6103 66.4645 14.9765C67.0554 14.3421 67.853 14.0249 68.8558 14.0249C69.8222 14.0249 70.5998 14.3374 71.1867 14.9631C71.7481 15.5701 72.0282 16.3537 72.0282 17.3141ZM70.5099 17.3602C70.5099 16.768 70.3802 16.2601 70.1173 15.8365C69.8105 15.3238 69.3719 15.0682 68.8036 15.0682C68.2154 15.0682 67.7686 15.3245 67.4618 15.8365C67.1989 16.2607 67.0692 16.7767 67.0692 17.387C67.0692 17.9793 67.1989 18.4872 67.4618 18.9101C67.7782 19.4227 68.2202 19.6784 68.7906 19.6784C69.3493 19.6784 69.7879 19.4174 70.1043 18.8967C70.374 18.4651 70.5099 17.9518 70.5099 17.3602Z" fill="white"/>
<path d="M76.7847 15.4108C76.6399 15.3847 76.4855 15.3713 76.3235 15.3713C75.8087 15.3713 75.4106 15.5607 75.1306 15.9401C74.8869 16.2747 74.7647 16.6977 74.7647 17.2083V20.5777H73.3021L73.3158 16.1784C73.3158 15.4382 73.2973 14.7643 73.2609 14.1567H74.5355L74.589 15.3853H74.6295C74.784 14.9631 75.0276 14.6231 75.3612 14.3681C75.6872 14.1386 76.0393 14.0242 76.4189 14.0242C76.5541 14.0242 76.6763 14.0335 76.7847 14.0503V15.4108Z" fill="white"/>
<path d="M83.3292 17.0631C83.3292 17.3188 83.3121 17.5343 83.2757 17.7103H78.8857C78.9028 18.3447 79.1149 18.8298 79.5226 19.1644C79.8926 19.4636 80.371 19.6135 80.9585 19.6135C81.6085 19.6135 82.2015 19.5124 82.7348 19.3097L82.9641 20.3001C82.3409 20.5651 81.6051 20.6969 80.756 20.6969C79.7347 20.6969 78.9331 20.4038 78.3496 19.8183C77.7676 19.2327 77.4759 18.4464 77.4759 17.46C77.4759 16.4916 77.747 15.6852 78.2899 15.0421C78.8582 14.3555 79.6263 14.0122 80.5927 14.0122C81.5419 14.0122 82.2606 14.3555 82.7486 15.0421C83.135 15.5875 83.3292 16.2621 83.3292 17.0631ZM81.9338 16.6931C81.9435 16.2701 81.8481 15.9047 81.6497 15.5962C81.3964 15.1994 81.0073 15.0013 80.4836 15.0013C80.0052 15.0013 79.616 15.1947 79.3188 15.5828C79.0751 15.8913 78.9303 16.2614 78.8857 16.6924H81.9338V16.6931Z" fill="white"/>
<path d="M33.1516 6.19312C33.1516 6.98078 32.9093 7.5737 32.4254 7.97188C31.9772 8.33928 31.3403 8.52331 30.5152 8.52331C30.1062 8.52331 29.7561 8.50591 29.463 8.47111V4.16743C29.8454 4.1072 30.2572 4.07642 30.7019 4.07642C31.4878 4.07642 32.0802 4.24305 32.4796 4.57632C32.9271 4.95308 33.1516 5.49179 33.1516 6.19312ZM32.3932 6.21253C32.3932 5.70192 32.2545 5.31044 31.9772 5.0374C31.6999 4.76503 31.295 4.62851 30.7617 4.62851C30.5352 4.62851 30.3423 4.64324 30.1824 4.67402V7.94578C30.2709 7.95917 30.4329 7.96519 30.6683 7.96519C31.2188 7.96519 31.6436 7.81596 31.9429 7.51749C32.2422 7.21902 32.3932 6.78404 32.3932 6.21253Z" fill="white"/>
<path d="M37.173 6.88109C37.173 7.36627 37.0309 7.76378 36.7468 8.07563C36.4489 8.39618 36.0542 8.55612 35.5614 8.55612C35.0865 8.55612 34.7083 8.40288 34.4262 8.09504C34.1448 7.78787 34.0041 7.4004 34.0041 6.93329C34.0041 6.44477 34.1489 6.04391 34.4399 5.73273C34.7309 5.42155 35.1222 5.26562 35.615 5.26562C36.0899 5.26562 36.4716 5.41887 36.7605 5.72604C37.0351 6.02451 37.173 6.40997 37.173 6.88109ZM36.4269 6.90385C36.4269 6.61274 36.3624 6.36313 36.2341 6.155C36.0831 5.90338 35.8682 5.77757 35.5889 5.77757C35.2999 5.77757 35.0803 5.90338 34.9293 6.155C34.8002 6.36313 34.7364 6.61676 34.7364 6.91656C34.7364 7.20767 34.8009 7.45728 34.9293 7.66541C35.0851 7.91703 35.302 8.04284 35.582 8.04284C35.8566 8.04284 36.0721 7.91502 36.2272 7.65872C36.3604 7.44658 36.4269 7.19495 36.4269 6.90385Z" fill="white"/>
<path d="M42.5651 5.32983L41.5527 8.48448H40.8938L40.4744 7.11461C40.3681 6.77265 40.2816 6.43269 40.2143 6.09541H40.2013C40.1388 6.44206 40.0523 6.78135 39.9411 7.11461L39.4957 8.48448H38.8292L37.8772 5.32983H38.6164L38.9823 6.82953C39.0708 7.18421 39.1436 7.52216 39.2019 7.84204H39.215C39.2685 7.57838 39.357 7.24243 39.482 6.83622L39.9411 5.3305H40.5273L40.9673 6.8041C41.0736 7.16347 41.1601 7.50945 41.2267 7.84271H41.2466C41.2953 7.51815 41.3688 7.17217 41.4662 6.8041L41.8588 5.3305H42.5651V5.32983Z" fill="white"/>
<path d="M46.2942 8.48458H45.5749V6.67771C45.5749 6.12093 45.358 5.84254 44.9228 5.84254C44.7093 5.84254 44.5371 5.91883 44.4032 6.07208C44.2708 6.22533 44.2035 6.40601 44.2035 6.6128V8.48391H43.4842V6.23135C43.4842 5.9543 43.4753 5.65382 43.4581 5.32859H44.0902L44.1239 5.82179H44.1438C44.2275 5.66854 44.3524 5.54206 44.5165 5.44101C44.7114 5.32323 44.9297 5.26367 45.1685 5.26367C45.4705 5.26367 45.7217 5.3587 45.9215 5.54942C46.1699 5.78298 46.2942 6.13164 46.2942 6.59473V8.48458Z" fill="white"/>
<path d="M48.2778 8.48447H47.5591V3.88232H48.2778V8.48447Z" fill="white"/>
<path d="M52.5127 6.88109C52.5127 7.36627 52.3706 7.76378 52.0864 8.07563C51.7885 8.39618 51.3932 8.55612 50.9011 8.55612C50.4254 8.55612 50.0472 8.40288 49.7658 8.09504C49.4844 7.78787 49.3437 7.4004 49.3437 6.93329C49.3437 6.44477 49.4885 6.04391 49.7795 5.73273C50.0706 5.42155 50.4618 5.26562 50.9539 5.26562C51.4296 5.26562 51.8105 5.41887 52.1001 5.72604C52.3747 6.02451 52.5127 6.40997 52.5127 6.88109ZM51.7659 6.90385C51.7659 6.61274 51.7014 6.36313 51.573 6.155C51.4227 5.90338 51.2072 5.77757 50.9285 5.77757C50.6389 5.77757 50.4192 5.90338 50.2689 6.155C50.1399 6.36313 50.076 6.61676 50.076 6.91656C50.076 7.20767 50.1406 7.45728 50.2689 7.66541C50.4247 7.91703 50.6416 8.04284 50.9217 8.04284C51.1962 8.04284 51.411 7.91502 51.5661 7.65872C51.7 7.44658 51.7659 7.19495 51.7659 6.90385Z" fill="white"/>
<path d="M55.9939 8.48452H55.348L55.2945 8.12114H55.2746C55.0536 8.41091 54.7386 8.55612 54.3295 8.55612C54.024 8.55612 53.777 8.46043 53.5909 8.27037C53.4221 8.09772 53.3377 7.8829 53.3377 7.62793C53.3377 7.24247 53.5024 6.94868 53.8339 6.74525C54.1647 6.54181 54.6301 6.44209 55.2293 6.44678V6.38789C55.2293 5.97231 55.0055 5.76485 54.5574 5.76485C54.2382 5.76485 53.9568 5.84315 53.7138 5.99841L53.5676 5.53799C53.8682 5.35664 54.2396 5.26562 54.6775 5.26562C55.5231 5.26562 55.9472 5.70061 55.9472 6.57058V7.73233C55.9472 8.04753 55.963 8.29848 55.9939 8.48452ZM55.2471 7.4004V6.91389C54.4537 6.9005 54.057 7.11264 54.057 7.54963C54.057 7.71426 54.1023 7.83739 54.1949 7.91971C54.2876 8.00202 54.4057 8.04284 54.5464 8.04284C54.7042 8.04284 54.8518 7.99399 54.9863 7.89695C55.1215 7.79925 55.2046 7.67545 55.2355 7.52354C55.243 7.48941 55.2471 7.44791 55.2471 7.4004Z" fill="white"/>
<path d="M60.0813 8.48447H59.4429L59.4093 7.97788H59.3894C59.1856 8.36335 58.8383 8.55608 58.3502 8.55608C57.9604 8.55608 57.6357 8.40685 57.3784 8.10838C57.121 7.80991 56.9926 7.42244 56.9926 6.94663C56.9926 6.43603 57.1319 6.02245 57.412 5.70659C57.6831 5.41214 58.0153 5.26491 58.4106 5.26491C58.8451 5.26491 59.1492 5.40745 59.3221 5.6932H59.3359V3.88232H60.0559V7.63458C60.0559 7.94175 60.0641 8.22482 60.0813 8.48447ZM59.3359 7.15409V6.62809C59.3359 6.53708 59.329 6.46346 59.316 6.40725C59.2755 6.23861 59.1883 6.09674 59.0558 5.9823C58.922 5.86787 58.7607 5.81032 58.5747 5.81032C58.3063 5.81032 58.0963 5.91404 57.9419 6.12217C57.7888 6.33029 57.7112 6.59597 57.7112 6.92053C57.7112 7.23238 57.7847 7.48535 57.9322 7.68009C58.0881 7.88754 58.2981 7.99127 58.561 7.99127C58.7971 7.99127 58.9858 7.90494 59.1293 7.73161C59.2679 7.57167 59.3359 7.37894 59.3359 7.15409Z" fill="white"/>
<path d="M66.2332 6.88109C66.2332 7.36627 66.0911 7.76378 65.8069 8.07563C65.5091 8.39618 65.1151 8.55612 64.6216 8.55612C64.1473 8.55612 63.7691 8.40288 63.4863 8.09504C63.2049 7.78787 63.0642 7.4004 63.0642 6.93329C63.0642 6.44477 63.209 6.04391 63.5001 5.73273C63.7911 5.42155 64.1823 5.26562 64.6758 5.26562C65.1501 5.26562 65.5324 5.41887 65.8207 5.72604C66.0952 6.02451 66.2332 6.40997 66.2332 6.88109ZM65.4878 6.90385C65.4878 6.61274 65.4233 6.36313 65.2949 6.155C65.1432 5.90338 64.9291 5.77757 64.649 5.77757C64.3608 5.77757 64.1411 5.90338 63.9894 6.155C63.8604 6.36313 63.7966 6.61676 63.7966 6.91656C63.7966 7.20767 63.8611 7.45728 63.9894 7.66541C64.1452 7.91703 64.3621 8.04284 64.6422 8.04284C64.9167 8.04284 65.1329 7.91502 65.288 7.65872C65.4205 7.44658 65.4878 7.19495 65.4878 6.90385Z" fill="white"/>
<path d="M70.1009 8.48458H69.3822V6.67771C69.3822 6.12093 69.1653 5.84254 68.7295 5.84254C68.516 5.84254 68.3438 5.91883 68.2106 6.07208C68.0774 6.22533 68.0109 6.40601 68.0109 6.6128V8.48391H67.2909V6.23135C67.2909 5.9543 67.2826 5.65382 67.2655 5.32859H67.8969L67.9306 5.82179H67.9505C68.0349 5.66854 68.1598 5.54206 68.3232 5.44101C68.5188 5.32323 68.7364 5.26367 68.9759 5.26367C69.2772 5.26367 69.5284 5.3587 69.7282 5.54942C69.9773 5.78298 70.1009 6.13164 70.1009 6.59473V8.48458Z" fill="white"/>
<path d="M74.9418 5.85517H74.1497V7.38766C74.1497 7.77714 74.2904 7.97188 74.5691 7.97188C74.6981 7.97188 74.8052 7.96117 74.8896 7.93909L74.9082 8.47111C74.7661 8.52331 74.5794 8.5494 74.3495 8.5494C74.0653 8.5494 73.8443 8.46508 73.6844 8.29644C73.5238 8.1278 73.4442 7.84406 73.4442 7.44588V5.85517H72.9713V5.32984H73.4442V4.75164L74.1491 4.54419V5.32917H74.9411V5.85517H74.9418Z" fill="white"/>
<path d="M78.7498 8.48447H78.0298V6.69099C78.0298 6.12551 77.8129 5.84244 77.3784 5.84244C77.0448 5.84244 76.817 6.00639 76.6921 6.33431C76.6708 6.40323 76.6584 6.48755 76.6584 6.5866V8.48381H75.9398V3.88232H76.6584V5.78355H76.6721C76.8987 5.43757 77.2233 5.26491 77.6441 5.26491C77.9419 5.26491 78.1883 5.35994 78.384 5.55066C78.6276 5.78823 78.7498 6.14157 78.7498 6.60868V8.48447Z" fill="white"/>
<path d="M82.6778 6.75788C82.6778 6.88369 82.6682 6.98943 82.6511 7.07575H80.4938C80.5034 7.38761 80.6064 7.62517 80.8061 7.7898C80.9887 7.93703 81.2241 8.01064 81.5124 8.01064C81.8315 8.01064 82.1226 7.96112 82.3848 7.86141L82.4973 8.34859C82.1905 8.47842 81.8295 8.54333 81.4115 8.54333C80.9104 8.54333 80.5158 8.39945 80.2302 8.11169C79.9433 7.82393 79.8013 7.4378 79.8013 6.95329C79.8013 6.47748 79.9337 6.08131 80.2007 5.76544C80.4794 5.42816 80.8562 5.25952 81.3319 5.25952C81.7972 5.25952 82.1507 5.42816 82.3896 5.76544C82.5824 6.03313 82.6778 6.36438 82.6778 6.75788ZM81.9915 6.57652C81.997 6.3684 81.9496 6.18905 81.8521 6.03781C81.7272 5.84307 81.5371 5.74537 81.2797 5.74537C81.045 5.74537 80.8535 5.84039 80.7073 6.03112C80.5878 6.18303 80.5172 6.36439 80.4938 6.57652H81.9915Z" fill="white"/>
</svg>
