<svg width="93" height="27" viewBox="0 0 93 27" fill="none" xmlns="http://www.w3.org/2000/svg">
<path d="M89.1052 26.7683H3.42712C1.54306 26.7683 0 25.2618 0 23.4223V3.346C0 1.50652 1.54306 -4.32014e-05 3.42712 -4.32014e-05H89.1052C90.9893 -4.32014e-05 92.5323 1.50652 92.5323 3.346V23.4223C92.5323 25.2618 90.9893 26.7683 89.1052 26.7683Z" fill="#18072B"/>
<path d="M32.5012 6.85508C32.5012 7.41387 32.3298 7.86141 31.9922 8.19517C31.6041 8.59084 31.0986 8.78993 30.4792 8.78993C29.8871 8.78993 29.3816 8.5875 28.9669 8.18848C28.5514 7.78361 28.3441 7.28672 28.3441 6.69196C28.3441 6.0972 28.5514 5.60032 28.9669 5.19879C29.3816 4.79643 29.8871 4.59399 30.4792 4.59399C30.7739 4.59399 31.0549 4.65339 31.3231 4.76381C31.5904 4.87506 31.808 5.02563 31.9657 5.21134L31.6075 5.56435C31.3325 5.24731 30.9581 5.09088 30.4792 5.09088C30.0473 5.09088 29.6729 5.23811 29.3551 5.53507C29.0406 5.83287 28.883 6.2185 28.883 6.69196C28.883 7.16543 29.0406 7.55441 29.3551 7.8522C29.6729 8.14582 30.0473 8.29639 30.4792 8.29639C30.9375 8.29639 31.3231 8.14582 31.6272 7.84886C31.8277 7.65228 31.9417 7.38125 31.9717 7.03493H30.4792V6.55143H32.4703C32.4943 6.65599 32.5012 6.75721 32.5012 6.85508Z" fill="white"/>
<path d="M35.6601 5.17874H33.7897V6.45024H35.4759V6.93374H33.7897V8.20524H35.6601V8.69794H33.2602V4.68604H35.6601V5.17874Z" fill="white"/>
<path d="M37.8894 8.69794H37.3599V5.17874H36.2127V4.68604H39.0375V5.17874H37.8894V8.69794Z" fill="white"/>
<path d="M41.0818 8.69794V4.68604H41.6104V8.69794H41.0818Z" fill="white"/>
<path d="M43.9537 8.69794H43.4285V5.17874H42.277V4.68604H45.1052V5.17874H43.9537V8.69794Z" fill="white"/>
<path d="M50.4532 8.18179C50.048 8.5875 49.5459 8.78993 48.947 8.78993C48.3447 8.78993 47.8426 8.5875 47.4374 8.18179C47.033 7.77692 46.8316 7.28003 46.8316 6.69196C46.8316 6.1039 47.033 5.60701 47.4374 5.20214C47.8426 4.79643 48.3447 4.59399 48.947 4.59399C49.5425 4.59399 50.0446 4.79643 50.4498 5.20548C50.8577 5.6137 51.059 6.10724 51.059 6.69196C51.059 7.28003 50.8577 7.77692 50.4532 8.18179ZM47.8289 7.84551C48.1339 8.14582 48.5049 8.29639 48.947 8.29639C49.3857 8.29639 49.7601 8.14582 50.0617 7.84551C50.3659 7.5452 50.5201 7.15957 50.5201 6.69196C50.5201 6.22435 50.3659 5.83872 50.0617 5.53842C49.7601 5.23811 49.3857 5.08754 48.947 5.08754C48.5049 5.08754 48.1339 5.23811 47.8289 5.53842C47.5248 5.83872 47.3706 6.22435 47.3706 6.69196C47.3706 7.15957 47.5248 7.5452 47.8289 7.84551Z" fill="white"/>
<path d="M51.8018 8.69794V4.68604H52.4444L54.4424 7.80622H54.4656L54.4424 7.03496V4.68604H54.9711V8.69794H54.4193L52.327 5.42384H52.3039L52.327 6.19845V8.69794H51.8018Z" fill="white"/>
<path d="M46.7014 14.5569C45.0915 14.5569 43.7763 15.7531 43.7763 17.4036C43.7763 19.0406 45.0915 20.2494 46.7014 20.2494C48.3147 20.2494 49.6299 19.0406 49.6299 17.4036C49.6299 15.7531 48.3147 14.5569 46.7014 14.5569ZM46.7014 19.1285C45.8181 19.1285 45.0581 18.4166 45.0581 17.4036C45.0581 16.3772 45.8181 15.6779 46.7014 15.6779C47.5847 15.6779 48.3481 16.3772 48.3481 17.4036C48.3481 18.4166 47.5847 19.1285 46.7014 19.1285ZM40.3192 14.5569C38.7059 14.5569 37.3942 15.7531 37.3942 17.4036C37.3942 19.0406 38.7059 20.2494 40.3192 20.2494C41.9317 20.2494 43.2443 19.0406 43.2443 17.4036C43.2443 15.7531 41.9317 14.5569 40.3192 14.5569ZM40.3192 19.1285C39.435 19.1285 38.6725 18.4166 38.6725 17.4036C38.6725 16.3772 39.435 15.6779 40.3192 15.6779C41.2026 15.6779 41.9625 16.3772 41.9625 17.4036C41.9625 18.4166 41.2026 19.1285 40.3192 19.1285ZM32.7247 15.4294V16.639H35.6832C35.5967 17.3149 35.3653 17.8118 35.0106 18.1581C34.5788 18.5764 33.9062 19.0406 32.7247 19.0406C30.9041 19.0406 29.4784 17.606 29.4784 15.8284C29.4784 14.0508 30.9041 12.6162 32.7247 12.6162C33.7092 12.6162 34.4254 12.9918 34.9541 13.4787L35.8271 12.6263C35.0877 11.937 34.1042 11.4075 32.7247 11.4075C30.2281 11.4075 28.1298 13.3908 28.1298 15.8284C28.1298 18.266 30.2281 20.2494 32.7247 20.2494C34.0742 20.2494 35.0877 19.8178 35.8845 19.008C36.7011 18.2108 36.9555 17.0899 36.9555 16.1848C36.9555 15.9037 36.9315 15.6452 36.8887 15.4294H32.7247ZM63.7796 16.3671C63.5388 15.7306 62.796 14.5569 61.2829 14.5569C59.7836 14.5569 58.5352 15.7105 58.5352 17.4036C58.5352 18.998 59.7707 20.2494 61.4269 20.2494C62.766 20.2494 63.5388 19.4522 63.8567 18.9879L62.8628 18.3413C62.5313 18.8148 62.0798 19.1285 61.4269 19.1285C60.7783 19.1285 60.3131 18.8382 60.0149 18.266L63.9141 16.6909L63.7796 16.3671ZM59.8041 17.3149C59.7707 16.2174 60.6772 15.6553 61.3266 15.6553C61.8356 15.6553 62.2674 15.9037 62.4113 16.2592L59.8041 17.3149ZM56.6349 20.0762H57.9167V11.7111H56.6349V20.0762ZM54.5358 15.191H54.493C54.2051 14.8581 53.6559 14.5569 52.9602 14.5569C51.5002 14.5569 50.1654 15.8084 50.1654 17.4128C50.1654 19.008 51.5002 20.2494 52.9602 20.2494C53.6559 20.2494 54.2051 19.9457 54.493 19.6028H54.5358V20.011C54.5358 21.0993 53.9403 21.684 52.9799 21.684C52.1968 21.684 51.711 21.1319 51.5105 20.6676L50.3958 21.1219C50.7171 21.8764 51.5679 22.8049 52.9799 22.8049C54.4827 22.8049 55.7507 21.9417 55.7507 19.8412V14.7301H54.5358V15.191ZM53.0698 19.1285C52.1865 19.1285 51.4471 18.4066 51.4471 17.4128C51.4471 16.4098 52.1865 15.6779 53.0698 15.6779C53.9403 15.6779 54.6266 16.4098 54.6266 17.4128C54.6266 18.4066 53.9403 19.1285 53.0698 19.1285ZM69.7805 11.7111H66.7149V20.0762H67.9932V16.9067H69.7805C71.2002 16.9067 72.5924 15.9037 72.5924 14.3085C72.5924 12.7141 71.1968 11.7111 69.7805 11.7111ZM69.8139 15.7431H67.9932V12.8747H69.8139C70.7684 12.8747 71.3133 13.6485 71.3133 14.3085C71.3133 14.956 70.7684 15.7431 69.8139 15.7431ZM77.716 14.541C76.7924 14.541 75.8319 14.9392 75.437 15.8217L76.5713 16.286C76.8155 15.8217 77.2645 15.6712 77.7391 15.6712C78.4023 15.6712 79.0748 16.0601 79.0851 16.7469V16.8348C78.8538 16.7043 78.3586 16.511 77.7494 16.511C76.5276 16.511 75.2827 17.1677 75.2827 18.3932C75.2827 19.5141 76.2835 20.236 77.4084 20.236C78.2686 20.236 78.7433 19.8571 79.0414 19.4162H79.0851V20.0628H80.3197V16.854C80.3197 15.3709 79.1854 14.541 77.716 14.541ZM77.5618 19.1251C77.1437 19.1251 76.5611 18.9227 76.5611 18.4166C76.5611 17.7691 77.2876 17.5207 77.9165 17.5207C78.4794 17.5207 78.7433 17.642 79.0851 17.8018C78.9849 18.5764 78.302 19.1251 77.5618 19.1251ZM84.8179 14.7242L83.3485 18.3505H83.3048L81.7857 14.7242H80.4071L82.6896 19.7918L81.3873 22.6117H82.723L86.2401 14.7242H84.8179ZM73.295 20.0762H74.5767V11.7111H73.295V20.0762Z" fill="white"/>
<path d="M7.15243 5.04509C6.95109 5.25087 6.83456 5.57126 6.83456 5.98617V20.7857C6.83456 21.2006 6.95109 21.521 7.15243 21.7268L7.20212 21.772L15.6962 13.4821V13.2864L7.20212 4.99658L7.15243 5.04509Z" fill="url(#paint0_linear_245_616)"/>
<path d="M18.5245 16.2466L15.6962 13.4819V13.2862L18.5279 10.5215L18.5913 10.5575L21.9447 12.4204C22.9018 12.9491 22.9018 13.819 21.9447 14.351L18.5913 16.2106L18.5245 16.2466Z" fill="url(#paint1_linear_245_616)"/>
<path d="M18.5913 16.2108L15.6963 13.3842L7.15244 21.7267C7.4703 22.053 7.98865 22.0923 8.57812 21.766L18.5913 16.2108Z" fill="url(#paint2_linear_245_616)"/>
<path d="M18.5913 10.5577L8.57812 5.00244C7.98865 4.67954 7.4703 4.71886 7.15244 5.0451L15.6963 13.3843L18.5913 10.5577Z" fill="url(#paint3_linear_245_616)"/>
<defs>
<linearGradient id="paint0_linear_245_616" x1="14.9421" y1="20.9398" x2="3.71436" y2="9.44008" gradientUnits="userSpaceOnUse">
<stop stop-color="#00A0FF"/>
<stop offset="0.0066" stop-color="#00A1FF"/>
<stop offset="0.2601" stop-color="#00BEFF"/>
<stop offset="0.5122" stop-color="#00D2FF"/>
<stop offset="0.7604" stop-color="#00DFFF"/>
<stop offset="1" stop-color="#00E3FF"/>
</linearGradient>
<linearGradient id="paint1_linear_245_616" x1="23.1909" y1="13.3831" x2="6.60578" y2="13.3831" gradientUnits="userSpaceOnUse">
<stop stop-color="#FFE000"/>
<stop offset="0.4087" stop-color="#FFBD00"/>
<stop offset="0.7754" stop-color="#FFA500"/>
<stop offset="1" stop-color="#FF9C00"/>
</linearGradient>
<linearGradient id="paint2_linear_245_616" x1="17.0171" y1="11.8476" x2="1.79137" y2="-3.74701" gradientUnits="userSpaceOnUse">
<stop stop-color="#FF3A44"/>
<stop offset="1" stop-color="#C31162"/>
</linearGradient>
<linearGradient id="paint3_linear_245_616" x1="5.00178" y1="26.6505" x2="11.8007" y2="19.6869" gradientUnits="userSpaceOnUse">
<stop stop-color="#32A071"/>
<stop offset="0.0685" stop-color="#2DA771"/>
<stop offset="0.4762" stop-color="#15CF74"/>
<stop offset="0.8009" stop-color="#06E775"/>
<stop offset="1" stop-color="#00F076"/>
</linearGradient>
</defs>
</svg>
