<svg width="100" height="100" viewBox="0 0 100 100" fill="none" xmlns="http://www.w3.org/2000/svg">
  <path d="M50 44.3889C57.3024 44.3889 63.2222 38.5438 63.2222 31.3334C63.2222 24.123 57.3024 18.2778 50 18.2778C42.6976 18.2778 36.7778 24.123 36.7778 31.3334C36.7778 38.5438 42.6976 44.3889 50 44.3889Z" fill="url(#paint0_linear_218_1776)"/>
  <path d="M29.9445 32.6389H31.2778V31.4444C31.2859 27.9711 32.2658 24.5693 34.1067 21.624C35.9475 18.6786 38.5759 16.3071 41.6945 14.7778C40.7712 12.6516 39.2893 10.8151 37.4062 9.46344C35.5231 8.11178 33.309 7.29539 30.9992 7.101C28.6893 6.9066 26.37 7.34145 24.2874 8.35936C22.2049 9.37727 20.4369 10.9402 19.1713 12.8822C17.9057 14.8242 17.1897 17.0728 17.0994 19.389C17.009 21.7053 17.5477 24.0027 18.6583 26.0374C19.7688 28.0721 21.4097 29.768 23.4066 30.945C25.4036 32.122 27.682 32.7361 30 32.7222L29.9445 32.6389ZM68.7778 31.3333V32.5278H70.1111C72.3982 32.5048 74.6368 31.8657 76.5913 30.6778C78.5458 29.4898 80.1439 27.7969 81.2174 25.7772C82.2909 23.7576 82.8 21.4859 82.6913 19.2013C82.5825 16.9166 81.8599 14.7036 80.5994 12.795C79.3389 10.8865 77.5873 9.35305 75.5287 8.35611C73.4702 7.35917 71.181 6.93561 68.9021 7.13002C66.6232 7.32442 64.4388 8.1296 62.5789 9.4608C60.719 10.792 59.2523 12.6 58.3333 14.6944C61.4529 16.2178 64.0841 18.5832 65.9298 21.5235C67.7755 24.4639 68.762 27.8618 68.7778 31.3333ZM61.9167 45.6944C67.4396 46.7876 72.7798 48.6581 77.7778 51.25C78.4819 51.6368 79.1196 52.1338 79.6667 52.7222H94.4445V43.2222C94.4472 42.8579 94.3503 42.4997 94.1642 42.1864C93.9782 41.873 93.7101 41.6165 93.3889 41.4444C86.1893 37.6787 78.1805 35.7241 70.0556 35.75H68.2222C67.2596 39.6631 65.0455 43.1549 61.9167 45.6944ZM18.1389 58.1111C18.1338 56.7121 18.5116 55.3385 19.2314 54.1388C19.9512 52.9392 20.9855 51.9594 22.2222 51.3056C27.2202 48.7136 32.5604 46.8432 38.0833 45.75C34.9696 43.232 32.757 39.7717 31.7778 35.8889H29.9445C21.8195 35.863 13.8107 37.8176 6.61112 41.5833C6.28992 41.7554 6.02183 42.0119 5.8358 42.3252C5.64977 42.6386 5.55287 42.9967 5.55557 43.3611V61.1111H18.1389V58.1111ZM59.6111 74.1389H76.1667V78.0278H59.6111V74.1389Z" fill="url(#paint1_linear_218_1776)"/>
  <path d="M91.1389 59.0555H72.0556V56.2778C72.0556 55.541 71.7629 54.8345 71.242 54.3136C70.721 53.7926 70.0145 53.5 69.2778 53.5C68.5411 53.5 67.8345 53.7926 67.3136 54.3136C66.7927 54.8345 66.5 55.541 66.5 56.2778V59.0555H61.1111V51.1944C57.4565 50.427 53.7343 50.0268 50 50C41.2327 49.9635 32.5906 52.0811 24.8333 56.1666C24.4878 56.3459 24.1986 56.6172 23.9976 56.9505C23.7966 57.2839 23.6917 57.6663 23.6944 58.0555V73.6389H43.4445V90.5555C43.4445 91.2922 43.7371 91.9988 44.258 92.5197C44.779 93.0406 45.4855 93.3333 46.2222 93.3333H91.1389C91.8756 93.3333 92.5821 93.0406 93.1031 92.5197C93.624 91.9988 93.9167 91.2922 93.9167 90.5555V61.8333C93.9167 61.0966 93.624 60.3901 93.1031 59.8691C92.5821 59.3482 91.8756 59.0555 91.1389 59.0555ZM88.3611 87.8333H49V64.6111H66.5V67.1389C66.5 67.8756 66.7927 68.5821 67.3136 69.1031C67.8345 69.624 68.5411 69.9166 69.2778 69.9166C70.0145 69.9166 70.721 69.624 71.242 69.1031C71.7629 68.5821 72.0556 67.8756 72.0556 67.1389V64.6111H88.3611V87.8333Z" fill="url(#paint2_linear_218_1776)"/>
  <defs>
    <linearGradient id="paint0_linear_218_1776" x1="50" y1="18.2778" x2="50" y2="44.3889" gradientUnits="userSpaceOnUse">
      <stop stop-color="#FE81A2"/>
      <stop offset="0.463542" stop-color="#FF599D"/>
      <stop offset="1" stop-color="#FB9BA4"/>
    </linearGradient>
    <linearGradient id="paint1_linear_218_1776" x1="50" y1="7.05579" x2="50" y2="78.0278" gradientUnits="userSpaceOnUse">
      <stop stop-color="#FE81A2"/>
      <stop offset="0.463542" stop-color="#FF599D"/>
      <stop offset="1" stop-color="#FB9BA4"/>
    </linearGradient>
    <linearGradient id="paint2_linear_218_1776" x1="58.8055" y1="49.9995" x2="58.8055" y2="93.3333" gradientUnits="userSpaceOnUse">
      <stop stop-color="#FE81A2"/>
      <stop offset="0.463542" stop-color="#FF599D"/>
      <stop offset="1" stop-color="#FB9BA4"/>
    </linearGradient>
  </defs>
</svg>