<svg width="144" height="100" viewBox="0 0 144 100" fill="none" xmlns="http://www.w3.org/2000/svg">
  <path d="M22.1429 23.8096L0.714294 33.3334V47.6191C0.714294 60.8334 9.85715 73.1905 22.1429 76.1905C34.4286 73.1905 43.5714 60.8334 43.5714 47.6191V33.3334L22.1429 23.8096ZM22.1429 33.0953C23.5556 33.0953 24.9366 33.5142 26.1112 34.2991C27.2859 35.0839 28.2014 36.1995 28.742 37.5047C29.2826 38.8099 29.4241 40.2461 29.1485 41.6316C28.8729 43.0172 28.1926 44.29 27.1936 45.2889C26.1947 46.2879 24.9219 46.9681 23.5364 47.2438C22.1508 47.5194 20.7146 47.3779 19.4094 46.8373C18.1042 46.2967 16.9887 45.3811 16.2038 44.2065C15.4189 43.0319 15 41.6509 15 40.2381C15 38.3437 15.7526 36.5269 17.0921 35.1874C18.4316 33.8478 20.2485 33.0953 22.1429 33.0953ZM22.1429 51.9048C26.9048 51.9048 36.4286 54.5 36.4286 59.2381C34.8648 61.5956 32.742 63.5294 30.2494 64.8671C27.7567 66.2048 24.9718 66.9049 22.1429 66.9049C19.314 66.9049 16.529 66.2048 14.0364 64.8671C11.5437 63.5294 9.42089 61.5956 7.85715 59.2381C7.85715 54.5 17.381 51.9048 22.1429 51.9048Z" fill="url(#paint0_linear_218_1774)"/>
  <path d="M122.143 23.8096L100.714 33.3334V47.6191C100.714 60.8334 109.857 73.1905 122.143 76.1905C134.429 73.1905 143.571 60.8334 143.571 47.6191V33.3334L122.143 23.8096ZM122.143 33.0953C123.556 33.0953 124.937 33.5142 126.111 34.2991C127.286 35.0839 128.201 36.1995 128.742 37.5047C129.283 38.8099 129.424 40.2461 129.148 41.6316C128.873 43.0172 128.193 44.29 127.194 45.2889C126.195 46.2879 124.922 46.9681 123.536 47.2438C122.151 47.5194 120.715 47.3779 119.409 46.8373C118.104 46.2967 116.989 45.3811 116.204 44.2065C115.419 43.0319 115 41.6509 115 40.2381C115 38.3437 115.753 36.5269 117.092 35.1874C118.432 33.8478 120.248 33.0953 122.143 33.0953ZM122.143 51.9048C126.905 51.9048 136.429 54.5 136.429 59.2381C134.865 61.5956 132.742 63.5294 130.249 64.8671C127.757 66.2048 124.972 66.9049 122.143 66.9049C119.314 66.9049 116.529 66.2048 114.036 64.8671C111.544 63.5294 109.421 61.5956 107.857 59.2381C107.857 54.5 117.381 51.9048 122.143 51.9048Z" fill="url(#paint1_linear_218_1774)"/>
  <path d="M75 4.16675L37.5 20.8334V45.8334C37.5 68.9584 53.5 90.5834 75 95.8334C96.5 90.5834 112.5 68.9584 112.5 45.8334V20.8334L75 4.16675ZM75 20.4167C77.4723 20.4167 79.889 21.1499 81.9446 22.5234C84.0002 23.8969 85.6024 25.8491 86.5485 28.1332C87.4946 30.4173 87.7421 32.9306 87.2598 35.3554C86.7775 37.7801 85.587 40.0074 83.8388 41.7556C82.0907 43.5037 79.8634 44.6942 77.4386 45.1766C75.0139 45.6589 72.5005 45.4113 70.2165 44.4652C67.9324 43.5191 65.9801 41.917 64.6066 39.8614C63.2331 37.8058 62.5 35.389 62.5 32.9167C62.5 29.6015 63.817 26.4221 66.1612 24.0779C68.5054 21.7337 71.6848 20.4167 75 20.4167ZM75 53.3334C83.3333 53.3334 100 57.8751 100 66.1667C97.2635 70.2922 93.5485 73.6764 89.1864 76.0174C84.8243 78.3585 79.9506 79.5836 75 79.5836C70.0494 79.5836 65.1757 78.3585 60.8136 76.0174C56.4515 73.6764 52.7365 70.2922 50 66.1667C50 57.8751 66.6667 53.3334 75 53.3334Z" fill="url(#paint2_linear_218_1774)"/>
  <defs>
    <linearGradient id="paint0_linear_218_1774" x1="22.1429" y1="23.8096" x2="22.1429" y2="76.1905" gradientUnits="userSpaceOnUse">
      <stop stop-color="#FE81A2"/>
      <stop offset="0.463542" stop-color="#FF599D"/>
      <stop offset="1" stop-color="#FB9BA4"/>
    </linearGradient>
    <linearGradient id="paint1_linear_218_1774" x1="122.143" y1="23.8096" x2="122.143" y2="76.1905" gradientUnits="userSpaceOnUse">
      <stop stop-color="#FE81A2"/>
      <stop offset="0.463542" stop-color="#FF599D"/>
      <stop offset="1" stop-color="#FB9BA4"/>
    </linearGradient>
    <linearGradient id="paint2_linear_218_1774" x1="75" y1="4.16675" x2="75" y2="95.8334" gradientUnits="userSpaceOnUse">
      <stop stop-color="#FE81A2"/>
      <stop offset="0.463542" stop-color="#FF599D"/>
      <stop offset="1" stop-color="#FB9BA4"/>
    </linearGradient>
  </defs>
</svg>