<svg width="100" height="100" viewBox="0 0 100 100" fill="none" xmlns="http://www.w3.org/2000/svg">
  <g clip-path="url(#clip0_218_1786)">
    <path fill-rule="evenodd" clip-rule="evenodd" d="M10.7143 5.35714C10.7143 3.93634 10.1499 2.57373 9.14522 1.56907C8.14056 0.564412 6.77795 0 5.35714 0C3.93634 0 2.57373 0.564412 1.56907 1.56907C0.564412 2.57373 0 3.93634 0 5.35714L0 94.6429C0 97.6 2.4 100 5.35714 100H94.6429C96.0637 100 97.4263 99.4356 98.4309 98.4309C99.4356 97.4263 100 96.0637 100 94.6429C100 93.2221 99.4356 91.8594 98.4309 90.8548C97.4263 89.8501 96.0637 89.2857 94.6429 89.2857H10.7143V69.4286L26.4429 52.6286C28.5214 53.8143 30.9286 54.4857 33.4857 54.4857C36.7286 54.4857 39.7143 53.4143 42.1143 51.5857L52.2786 61.0714C51.4866 63.4578 51.3379 66.0108 51.8474 68.4731C52.3568 70.9353 53.5065 73.2196 55.1804 75.0958C56.8544 76.9719 58.9934 78.3736 61.3819 79.1593C63.7703 79.9451 66.3237 80.0872 68.7846 79.5713C71.2455 79.0555 73.5268 77.8999 75.3986 76.221C77.2704 74.5422 78.6665 72.3996 79.4461 70.0091C80.2256 67.6186 80.3611 65.0649 79.8389 62.6053C79.3166 60.1458 78.1551 57.8674 76.4714 56L76.4857 55.9643L84.7643 33.2286C88.0637 32.933 91.1576 31.4994 93.5162 29.1733C95.8748 26.8473 97.3512 23.7736 97.6926 20.4786C98.0341 17.1837 97.2192 13.8725 95.3877 11.1123C93.5561 8.35208 90.8218 6.31457 87.6532 5.34876C84.4845 4.38294 81.0786 4.54891 78.0188 5.81824C74.9591 7.08757 72.4358 9.38127 70.8813 12.3065C69.3268 15.2317 68.8378 18.6064 69.498 21.8525C70.1581 25.0987 71.9264 28.0143 74.5 30.1L66.7786 51.3143C64.1642 51.1532 61.5551 51.7037 59.2286 52.9071L48.2143 42.6214C48.0346 42.4539 47.8436 42.2988 47.6429 42.1571C47.9301 40.055 47.7449 37.9152 47.1009 35.8936C46.4569 33.872 45.3703 32.0194 43.9201 30.4707C42.4698 28.922 40.6926 27.7161 38.7176 26.9408C36.7426 26.1655 34.6196 25.8404 32.5031 25.989C30.3866 26.1376 28.3299 26.7563 26.4826 27.7999C24.6353 28.8436 23.044 30.286 21.8245 32.0222C20.6049 33.7584 19.7879 35.7447 19.4327 37.8365C19.0776 39.9282 19.1933 42.0729 19.7714 44.1143L19.5571 44.3214L10.7143 53.75V5.35714Z" fill="url(#paint0_linear_218_1786)"/>
  </g>
  <defs>
    <linearGradient id="paint0_linear_218_1786" x1="50" y1="0" x2="50" y2="100" gradientUnits="userSpaceOnUse">
      <stop stop-color="#FE81A2"/>
      <stop offset="0.463542" stop-color="#FF599D"/>
      <stop offset="1" stop-color="#FB9BA4"/>
    </linearGradient>
    <clipPath id="clip0_218_1786">
      <rect width="100" height="100" fill="white"/>
    </clipPath>
  </defs>
</svg>