<svg width="100" height="100" viewBox="0 0 100 100" fill="none" xmlns="http://www.w3.org/2000/svg">
  <path d="M73.9708 58.3334C75.202 58.3334 76.4211 58.5759 77.5585 59.047C78.6959 59.5181 79.7294 60.2087 80.6 61.0792C81.4705 61.9498 82.1611 62.9833 82.6322 64.1207C83.1033 65.2581 83.3458 66.4772 83.3458 67.7084V71.475C83.3464 73.7273 82.86 75.9531 81.9201 77.9999C80.9801 80.0467 79.6088 81.8661 77.9 83.3334C71.3792 88.9334 62.0417 91.6667 50 91.6667C37.9583 91.6667 28.6333 88.9334 22.125 83.3334C20.4186 81.8671 19.049 80.0495 18.1098 78.0051C17.1706 75.9606 16.684 73.7374 16.6833 71.4875V67.7042C16.6844 65.2185 17.6726 62.835 19.4307 61.0778C21.1887 59.3205 23.5727 58.3334 26.0583 58.3334H73.9708ZM50 8.33337C50.7552 8.33341 51.4848 8.60688 52.0539 9.10324C52.623 9.59959 52.9931 10.2852 53.0958 11.0334L53.125 11.4584L53.1208 14.5792H67.7042C70.1906 14.5792 72.5751 15.5669 74.3333 17.3251C76.0914 19.0832 77.0792 21.4678 77.0792 23.9542V42.725C77.0792 45.2114 76.0914 47.596 74.3333 49.3542C72.5751 51.1123 70.1906 52.1 67.7042 52.1H32.2875C29.8011 52.1 27.4165 51.1123 25.6584 49.3542C23.9002 47.596 22.9125 45.2114 22.9125 42.725V23.9584C22.9125 22.7269 23.1551 21.5075 23.6265 20.3698C24.0979 19.2321 24.7889 18.1984 25.6598 17.3278C26.5308 16.4572 27.5648 15.7667 28.7027 15.2958C29.8406 14.8249 31.0602 14.5828 32.2917 14.5834L46.875 14.5792V11.4584C46.8752 10.7026 47.1492 9.97248 47.6464 9.40327C48.1436 8.83406 48.8303 8.46432 49.5792 8.36254L50 8.33337ZM40.6208 27.0834C39.9199 27.0553 39.2205 27.1692 38.5646 27.418C37.9088 27.6669 37.3099 28.0458 36.8041 28.5318C36.2982 29.0178 35.8958 29.601 35.6208 30.2464C35.3459 30.8918 35.2042 31.586 35.2042 32.2875C35.2042 32.989 35.3459 33.6833 35.6208 34.3287C35.8958 34.9741 36.2982 35.5573 36.8041 36.0433C37.3099 36.5293 37.9088 36.9081 38.5646 37.157C39.2205 37.4059 39.9199 37.5198 40.6208 37.4917C41.965 37.4379 43.2363 36.8661 44.1683 35.896C45.1003 34.9259 45.6209 33.6328 45.6209 32.2875C45.6209 30.9423 45.1003 29.6492 44.1683 28.6791C43.2363 27.709 41.965 27.1372 40.6208 27.0834ZM59.3417 27.0834C58.6407 27.0553 57.9413 27.1692 57.2855 27.418C56.6296 27.6669 56.0308 28.0458 55.5249 28.5318C55.0191 29.0178 54.6166 29.601 54.3417 30.2464C54.0668 30.8918 53.925 31.586 53.925 32.2875C53.925 32.989 54.0668 33.6833 54.3417 34.3287C54.6166 34.9741 55.0191 35.5573 55.5249 36.0433C56.0308 36.5293 56.6296 36.9081 57.2855 37.157C57.9413 37.4059 58.6407 37.5198 59.3417 37.4917C60.6859 37.4379 61.9571 36.8661 62.8891 35.896C63.8212 34.9259 64.3417 33.6328 64.3417 32.2875C64.3417 30.9423 63.8212 29.6492 62.8891 28.6791C61.9571 27.709 60.6859 27.1372 59.3417 27.0834Z" fill="url(#paint0_linear_218_1784)"/>
  <defs>
    <linearGradient id="paint0_linear_218_1784" x1="50.0146" y1="8.33337" x2="50.0146" y2="91.6667" gradientUnits="userSpaceOnUse">
      <stop stop-color="#FE81A2"/>
      <stop offset="0.463542" stop-color="#FF599D"/>
      <stop offset="1" stop-color="#FB9BA4"/>
    </linearGradient>
  </defs>
</svg>