<svg width="96" height="96" viewBox="0 0 96 96" fill="none" xmlns="http://www.w3.org/2000/svg">
  <path d="M86.5988 82.4999C86.3354 82.9561 85.9566 83.3349 85.5004 83.5982C85.0442 83.8615 84.5267 84.0001 84 83.9999H12C11.4737 83.9994 10.9567 83.8604 10.5011 83.5969C10.0455 83.3333 9.66718 82.9546 9.40424 82.4986C9.1413 82.0426 9.00295 81.5255 9.00308 80.9992C9.00322 80.4728 9.14183 79.9558 9.40501 79.4999C15.1163 69.6262 23.9175 62.5462 34.1888 59.1899C29.1081 56.1654 25.1608 51.5567 22.953 46.0717C20.7451 40.5866 20.3988 34.5285 21.9673 28.8275C23.5357 23.1266 26.9322 18.0982 31.6351 14.5144C36.338 10.9307 42.0873 8.98975 48 8.98975C53.9128 8.98975 59.662 10.9307 64.3649 14.5144C69.0678 18.0982 72.4643 23.1266 74.0327 28.8275C75.6012 34.5285 75.2549 40.5866 73.0471 46.0717C70.8392 51.5567 66.8919 56.1654 61.8113 59.1899C72.0825 62.5462 80.8838 69.6262 86.595 79.4999C86.8589 79.9557 86.9981 80.4728 86.9988 80.9994C86.9995 81.5261 86.8615 82.0436 86.5988 82.4999Z" fill="url(#paint0_linear_218_1798)"/>
  <defs>
    <linearGradient id="paint0_linear_218_1798" x1="48.0009" y1="8.98975" x2="48.0009" y2="83.9999" gradientUnits="userSpaceOnUse">
      <stop stop-color="#FE81A2"/>
      <stop offset="1" stop-color="#FB9BA4"/>
    </linearGradient>
  </defs>
</svg>