<svg xmlns="http://www.w3.org/2000/svg" width="168" height="158" viewBox="0 0 168 158" fill="none">
  <path d="M91.3667 4.1002C88.4834 -1.3498 79.5167 -1.3498 76.6334 4.1002L1.6334 145.767C0.958258 147.037 0.623554 148.46 0.661895 149.897C0.700236 151.335 1.11031 152.738 1.85217 153.97C2.59403 155.202 3.64237 156.221 4.89504 156.927C6.14771 157.633 7.56199 158.003 9.00006 158H159C160.437 158.003 161.851 157.634 163.102 156.928C164.354 156.222 165.402 155.204 166.143 153.972C166.884 152.741 167.293 151.339 167.331 149.902C167.369 148.466 167.034 147.044 166.358 145.775L91.3667 4.1002ZM92.3334 133H75.6667V116.334H92.3334V133ZM75.6667 99.6669V58.0002H92.3334L92.3417 99.6669H75.6667Z" fill="url(#paint0_linear_266_1879)"/>
  <defs>
    <linearGradient id="paint0_linear_266_1879" x1="83.9965" y1="0.0126953" x2="83.9965" y2="158" gradientUnits="userSpaceOnUse">
      <stop stop-color="#FE81A2"/>
      <stop offset="0.4625" stop-color="#FF599D"/>
      <stop offset="1" stop-color="#FB9BA4"/>
    </linearGradient>
  </defs>
</svg>