<svg width="100" height="100" viewBox="0 0 100 100" fill="none" xmlns="http://www.w3.org/2000/svg">
  <path fill-rule="evenodd" clip-rule="evenodd" d="M3.78572 21.6429C7.85715 12.5143 16.8571 2.65002 31.8214 2.65002C53.0071 2.65002 64.9286 18.2429 64.9286 33.7929C64.9286 48.7429 55.6214 58.2643 48.95 63.1643C44.7643 66.2357 42.0571 68.6572 42.0571 72.3286C42.0571 81.4572 34.6 87.8286 26.7286 89.5715C18.5857 91.3715 9.00001 88.5714 3.97144 78.6643C3.06459 76.7937 2.61185 74.7356 2.65001 72.6572V27.3C2.65001 25.4857 2.94287 23.5286 3.78572 21.6429ZM24.0214 31.5286C25.3143 27.6215 28.05 24.5857 31.95 24.5857C37.9857 24.5857 41.5357 29.3143 41.5357 34.7286C41.5357 38.0857 40.75 40.0286 39.8643 41.3215C38.9071 42.7072 37.5714 43.75 35.7214 44.9286L34.7714 45.5215C33.2 46.4929 31.15 47.7643 29.5714 49.3072C28.3382 50.4938 27.365 51.9236 26.7133 53.5061C26.0616 55.0885 25.7458 56.7891 25.7857 58.5C25.7857 60.1643 25.3429 61.0429 25.0143 61.4715C24.7231 61.8671 24.2909 62.1356 23.8071 62.2215C22.8143 62.4 21.5429 61.9143 20.95 60.5072C20.7211 59.9673 20.3882 59.4779 19.9701 59.0667C19.5521 58.6556 19.0572 58.3308 18.5136 58.1109C17.9701 57.8911 17.3885 57.7804 16.8022 57.7853C16.2159 57.7901 15.6363 57.9104 15.0964 58.1393C14.5566 58.3682 14.0672 58.7011 13.656 59.1192C13.2449 59.5372 12.9201 60.0321 12.7002 60.5757C12.4803 61.1192 12.3697 61.7008 12.3745 62.2871C12.3794 62.8734 12.4997 63.4531 12.7286 63.9929C13.7283 66.433 15.532 68.4582 17.8405 69.7326C20.1491 71.007 22.8239 71.4542 25.4214 71C27.9572 70.5357 30.35 69.1786 32.0929 66.9215C33.8286 64.6643 34.7071 61.7715 34.7071 58.5C34.7071 57.0715 35.1357 56.3715 35.8357 55.6715C36.6286 54.8929 37.5786 54.3 39.0214 53.4L40.5214 52.4572C42.6143 51.1215 45.2143 49.2929 47.2143 46.3857C49.2857 43.3857 50.4643 39.6143 50.4643 34.7286C50.4643 25.6286 44.0786 15.6572 31.9571 15.6572C22.3857 15.6572 17.3643 23.2286 15.5429 28.7286C15.359 29.2853 15.2866 29.8728 15.3298 30.4575C15.373 31.0422 15.5309 31.6126 15.7946 32.1363C16.0582 32.6599 16.4224 33.1265 16.8664 33.5094C17.3104 33.8923 17.8254 34.184 18.3822 34.3679C18.9389 34.5517 19.5263 34.6241 20.111 34.5809C20.6957 34.5378 21.2662 34.3798 21.7898 34.1162C22.3135 33.8525 22.7801 33.4883 23.163 33.0443C23.5459 32.6004 23.8376 32.0853 24.0214 31.5286ZM91.9929 62.1286C93.4137 62.1286 94.7763 62.693 95.7809 63.6977C96.7856 64.7023 97.35 66.0649 97.35 67.4857C97.35 75.4044 94.2043 82.9986 88.605 88.5979C83.0057 94.1972 75.4115 97.3429 67.4929 97.3429C66.0721 97.3429 64.7094 96.7785 63.7048 95.7738C62.7001 94.7692 62.1357 93.4065 62.1357 91.9857C62.1357 90.5649 62.7001 89.2023 63.7048 88.1977C64.7094 87.193 66.0721 86.6286 67.4929 86.6286C78.0643 86.6286 86.6357 78.0572 86.6357 67.4857C86.6357 66.0649 87.2001 64.7023 88.2048 63.6977C89.2094 62.693 90.5721 62.1286 91.9929 62.1286ZM79.8929 61.1215C79.8929 59.7007 79.3285 58.338 78.3238 57.3334C77.3191 56.3287 75.9565 55.7643 74.5357 55.7643C73.1149 55.7643 71.7523 56.3287 70.7477 57.3334C69.743 58.338 69.1786 59.7007 69.1786 61.1215C69.1786 65.4429 65.6786 68.9429 61.3572 68.9429C59.9363 68.9429 58.5737 69.5073 57.5691 70.512C56.5644 71.5166 56 72.8792 56 74.3C56 75.7208 56.5644 77.0834 57.5691 78.0881C58.5737 79.0928 59.9363 79.6572 61.3572 79.6572C66.2731 79.6572 70.9878 77.7043 74.4639 74.2282C77.94 70.7521 79.8929 66.0374 79.8929 61.1215Z" fill="url(#paint0_linear_218_1792)"/>
  <defs>
    <linearGradient id="paint0_linear_218_1792" x1="49.9989" y1="2.65002" x2="49.9989" y2="97.3429" gradientUnits="userSpaceOnUse">
      <stop stop-color="#FE81A2"/>
      <stop offset="0.463542" stop-color="#FF599D"/>
      <stop offset="1" stop-color="#FB9BA4"/>
    </linearGradient>
  </defs>
</svg>