<svg width="100" height="100" viewBox="0 0 100 100" fill="none" xmlns="http://www.w3.org/2000/svg">
  <g clip-path="url(#clip0_218_1780)">
    <path d="M30.5556 45.8333L27.7778 54.4444H33.3333L30.5556 45.8333Z" fill="url(#paint0_linear_218_1780)"/>
    <path d="M84.1667 8.33325H39.7222V22.2221H50.8333V27.7777H14.7222C10 27.7777 6.38889 31.3888 6.38889 36.111V66.6666C6.38889 71.3888 10 74.9999 14.7222 74.9999H17.5V89.1666L35 74.9999H53.6111V55.5555H84.1667C88.8889 55.5555 92.5 51.9444 92.5 47.2221V16.6666C92.5 11.9444 88.8889 8.33325 84.1667 8.33325ZM36.3889 63.611L35 59.1666H26.3889L24.7222 63.611H18.0556L27.2222 38.8888H33.8889L43.0556 63.611H36.3889ZM78.6111 41.6666V47.2221C75 47.2221 71.1111 46.111 67.7778 44.4444C64.4445 46.111 60.5556 46.9444 56.6667 47.2221L56.3889 41.6666C58.3333 41.6666 60.2778 41.3888 62.2222 40.8333C59.7222 38.3333 58.0556 35.2777 57.2222 31.9444H63.0556C63.8889 34.4444 65.5556 36.3888 67.5 38.0555C70.5556 35.5555 72.5 31.9444 72.7778 27.7777H56.1111V22.2221H64.4445V16.6666H70V22.2221H79.1667L79.4445 24.9999C79.7222 30.8333 77.5 36.6666 73.3333 40.8333C75.2778 41.3888 76.9444 41.6666 78.6111 41.6666Z" fill="url(#paint1_linear_218_1780)"/>
  </g>
  <defs>
    <linearGradient id="paint0_linear_218_1780" x1="30.5556" y1="45.8333" x2="30.5556" y2="54.4444" gradientUnits="userSpaceOnUse">
      <stop stop-color="#FE81A2"/>
      <stop offset="0.463542" stop-color="#FF599D"/>
      <stop offset="1" stop-color="#FB9BA4"/>
    </linearGradient>
    <linearGradient id="paint1_linear_218_1780" x1="49.4444" y1="8.33325" x2="49.4444" y2="89.1666" gradientUnits="userSpaceOnUse">
      <stop stop-color="#FE81A2"/>
      <stop offset="0.463542" stop-color="#FF599D"/>
      <stop offset="1" stop-color="#FB9BA4"/>
    </linearGradient>
    <clipPath id="clip0_218_1780">
      <rect width="100" height="100" fill="white"/>
    </clipPath>
  </defs>
</svg>