<svg width="60" height="60" viewBox="0 0 60 60" fill="none" xmlns="http://www.w3.org/2000/svg">
  <path d="M30 3.75C23.0642 3.83416 16.4362 6.62679 11.5315 11.5315C6.62679 16.4362 3.83416 23.0642 3.75 30C3.83416 36.9358 6.62679 43.5638 11.5315 48.4685C16.4362 53.3732 23.0642 56.1658 30 56.25C36.9358 56.1658 43.5638 53.3732 48.4685 48.4685C53.3732 43.5638 56.1658 36.9358 56.25 30C56.1658 23.0642 53.3732 16.4362 48.4685 11.5315C43.5638 6.62679 36.9358 3.83416 30 3.75ZM45 31.875H31.875V45H28.125V31.875H15V28.125H28.125V15H31.875V28.125H45V31.875Z" fill="url(#paint0_linear_190_1404)"/>
  <defs>
    <linearGradient id="paint0_linear_190_1404" x1="30" y1="3.75" x2="30" y2="56.25" gradientUnits="userSpaceOnUse">
      <stop stop-color="#FB9BA4"/>
      <stop offset="1" stop-color="#FE81A2"/>
    </linearGradient>
  </defs>
</svg>