<svg width="100" height="100" viewBox="0 0 100 100" fill="none" xmlns="http://www.w3.org/2000/svg">
  <path fill-rule="evenodd" clip-rule="evenodd" d="M49.9999 8.3335C26.9874 8.3335 8.33325 26.9877 8.33325 50.0002C8.33325 73.0127 26.9874 91.6668 49.9999 91.6668C73.0124 91.6668 91.6666 73.0127 91.6666 50.0002C91.6666 26.9877 73.0124 8.3335 49.9999 8.3335ZM35.4166 39.5835C35.4166 37.6684 35.7938 35.772 36.5267 34.0027C37.2596 32.2334 38.3338 30.6257 39.6879 29.2715C41.0421 27.9173 42.6498 26.8431 44.4191 26.1103C46.1885 25.3774 48.0848 25.0002 49.9999 25.0002C51.915 25.0002 53.8114 25.3774 55.5807 26.1103C57.3501 26.8431 58.9577 27.9173 60.3119 29.2715C61.6661 30.6257 62.7403 32.2334 63.4732 34.0027C64.206 35.772 64.5833 37.6684 64.5833 39.5835C64.5833 43.4512 63.0468 47.1606 60.3119 49.8955C57.577 52.6304 53.8677 54.1668 49.9999 54.1668C46.1322 54.1668 42.4229 52.6304 39.6879 49.8955C36.953 47.1606 35.4166 43.4512 35.4166 39.5835ZM76.0749 70.7668C72.9559 74.6903 68.9908 77.8583 64.4756 80.0344C59.9605 82.2104 55.0121 83.3382 49.9999 83.3335C44.9878 83.3382 40.0393 82.2104 35.5242 80.0344C31.0091 77.8583 27.0439 74.6903 23.9249 70.7668C30.6791 65.921 39.8958 62.5002 49.9999 62.5002C60.1041 62.5002 69.3208 65.921 76.0749 70.7668Z" fill="url(#paint0_linear_190_769)"/>
  <defs>
    <linearGradient id="paint0_linear_190_769" x1="49.9999" y1="8.3335" x2="49.9999" y2="91.6668" gradientUnits="userSpaceOnUse">
      <stop stop-color="#808080"/>
      <stop offset="0.5" stop-color="#808080"/>
      <stop offset="1" stop-color="#202020"/>
    </linearGradient>
  </defs>
</svg>