<svg width="100" height="100" viewBox="0 0 100 100" fill="none" xmlns="http://www.w3.org/2000/svg">
  <path fill-rule="evenodd" clip-rule="evenodd" d="M50 8.3335C26.9875 8.3335 8.33333 26.9877 8.33333 50.0002C8.33333 73.0127 26.9875 91.6668 50 91.6668C73.0125 91.6668 91.6667 73.0127 91.6667 50.0002C91.6667 26.9877 73.0125 8.3335 50 8.3335ZM35.4167 39.5835C35.4167 37.6684 35.7939 35.772 36.5268 34.0027C37.2596 32.2334 38.3338 30.6257 39.688 29.2715C41.0422 27.9173 42.6499 26.8431 44.4192 26.1103C46.1885 25.3774 48.0849 25.0002 50 25.0002C51.9151 25.0002 53.8115 25.3774 55.5808 26.1103C57.3501 26.8431 58.9578 27.9173 60.312 29.2715C61.6662 30.6257 62.7404 32.2334 63.4732 34.0027C64.2061 35.772 64.5833 37.6684 64.5833 39.5835C64.5833 43.4512 63.0469 47.1606 60.312 49.8955C57.5771 52.6304 53.8677 54.1668 50 54.1668C46.1323 54.1668 42.4229 52.6304 39.688 49.8955C36.9531 47.1606 35.4167 43.4512 35.4167 39.5835ZM76.075 70.7668C72.956 74.6903 68.9908 77.8583 64.4757 80.0344C59.9606 82.2104 55.0121 83.3382 50 83.3335C44.9879 83.3382 40.0394 82.2104 35.5243 80.0344C31.0092 77.8583 27.044 74.6903 23.925 70.7668C30.6792 65.921 39.8958 62.5002 50 62.5002C60.1042 62.5002 69.3208 65.921 76.075 70.7668Z" fill="url(#paint0_linear_400_1273)"/>
  <defs>
    <linearGradient id="paint0_linear_400_1273" x1="50" y1="8.3335" x2="50" y2="91.6668" gradientUnits="userSpaceOnUse">
      <stop stop-color="#FB9BA4"/>
      <stop offset="0.416667" stop-color="#FE81A2"/>
      <stop offset="1" stop-color="#FF599D"/>
    </linearGradient>
  </defs>
</svg>