<svg width="50" height="50" viewBox="0 0 50 50" fill="none" xmlns="http://www.w3.org/2000/svg">
  <path d="M12.4999 27.0835H4.16659C2.91659 27.0835 2.08325 27.9168 2.08325 29.1668V45.8335C2.08325 47.0835 2.91659 47.9168 4.16659 47.9168H12.4999C13.7499 47.9168 14.5833 47.0835 14.5833 45.8335V29.1668C14.5833 27.9168 13.7499 27.0835 12.4999 27.0835ZM45.8333 18.7502H37.4999C36.2499 18.7502 35.4166 19.5835 35.4166 20.8335V45.8335C35.4166 47.0835 36.2499 47.9168 37.4999 47.9168H45.8333C47.0833 47.9168 47.9166 47.0835 47.9166 45.8335V20.8335C47.9166 19.5835 47.0833 18.7502 45.8333 18.7502ZM29.1666 2.0835H20.8333C19.5833 2.0835 18.7499 2.91683 18.7499 4.16683V45.8335C18.7499 47.0835 19.5833 47.9168 20.8333 47.9168H29.1666C30.4166 47.9168 31.2499 47.0835 31.2499 45.8335V4.16683C31.2499 2.91683 30.4166 2.0835 29.1666 2.0835Z" fill="url(#paint0_linear_190_858)"/>
  <defs>
    <linearGradient id="paint0_linear_190_858" x1="24.9999" y1="2.0835" x2="24.9999" y2="47.9168" gradientUnits="userSpaceOnUse">
      <stop stop-color="#FE81A2"/>
      <stop offset="1" stop-color="#9F88AF"/>
    </linearGradient>
  </defs>
</svg>