<svg width="50" height="50" viewBox="0 0 50 50" fill="none" xmlns="http://www.w3.org/2000/svg">
  <path d="M25 22.1942C28.6512 22.1942 31.6111 19.2716 31.6111 15.6664C31.6111 12.0613 28.6512 9.13867 25 9.13867C21.3488 9.13867 18.3889 12.0613 18.3889 15.6664C18.3889 19.2716 21.3488 22.1942 25 22.1942Z" fill="url(#paint0_linear_190_817)"/>
  <path d="M14.9723 16.3194H15.639V15.7222C15.643 13.9855 16.133 12.2846 17.0534 10.8119C17.9738 9.33922 19.288 8.15348 20.8473 7.38883C20.3857 6.32572 19.6447 5.40749 18.7032 4.73166C17.7616 4.05583 16.6546 3.64764 15.4997 3.55044C14.3447 3.45324 13.1851 3.67067 12.1438 4.17962C11.1025 4.68858 10.2185 5.47006 9.58572 6.44106C8.95291 7.41206 8.59492 8.53633 8.54975 9.69446C8.50459 10.8526 8.77394 12.0013 9.32921 13.0186C9.88447 14.036 10.7049 14.8839 11.7034 15.4724C12.7019 16.0609 13.8411 16.368 15.0001 16.3611L14.9723 16.3194ZM34.389 15.6666V16.2638H35.0556C36.1992 16.2524 37.3185 15.9328 38.2957 15.3388C39.273 14.7448 40.072 13.8984 40.6088 12.8886C41.1455 11.8787 41.4001 10.7429 41.3457 9.60057C41.2913 8.45826 40.93 7.35173 40.2998 6.39746C39.6695 5.44319 38.7937 4.67646 37.7645 4.17799C36.7352 3.67952 35.5906 3.46774 34.4511 3.56495C33.3117 3.66215 32.2195 4.06474 31.2895 4.73034C30.3596 5.39594 29.6262 6.29993 29.1667 7.34716C30.7265 8.10882 32.0421 9.29156 32.965 10.7617C33.8878 12.2319 34.3811 13.9308 34.389 15.6666ZM30.9584 22.8472C33.7199 23.3938 36.39 24.329 38.889 25.6249C39.241 25.8183 39.5599 26.0669 39.8334 26.3611H47.2223V21.6111C47.2236 21.4289 47.1752 21.2498 47.0822 21.0931C46.9892 20.9365 46.8551 20.8082 46.6945 20.7222C43.0947 18.8393 39.0903 17.862 35.0279 17.8749H34.1112C33.6299 19.8315 32.5228 21.5774 30.9584 22.8472ZM9.06953 29.0555C9.06699 28.356 9.25589 27.6692 9.61578 27.0694C9.97566 26.4696 10.4928 25.9796 11.1112 25.6527C13.6102 24.3568 16.2803 23.4215 19.0417 22.8749C17.4849 21.616 16.3786 19.8858 15.889 17.9444H14.9723C10.9098 17.9314 6.90543 18.9087 3.30564 20.7916C3.14504 20.8776 3.01099 21.0059 2.91798 21.1626C2.82496 21.3192 2.77651 21.4983 2.77786 21.6805V30.5555H9.06953V29.0555ZM29.8056 37.0694H38.0834V39.0138H29.8056V37.0694Z" fill="url(#paint1_linear_190_817)"/>
  <path d="M45.5694 29.528H36.0277V28.1391C36.0277 27.7708 35.8814 27.4175 35.621 27.157C35.3605 26.8966 35.0072 26.7502 34.6389 26.7502C34.2705 26.7502 33.9172 26.8966 33.6568 27.157C33.3963 27.4175 33.25 27.7708 33.25 28.1391V29.528H30.5555V25.5975C28.7282 25.2137 26.8671 25.0137 25 25.0002C20.6163 24.982 16.2953 26.0408 12.4166 28.0836C12.2439 28.1732 12.0993 28.3088 11.9988 28.4755C11.8983 28.6422 11.8458 28.8334 11.8472 29.028V36.8197H21.7222V45.278C21.7222 45.6464 21.8685 45.9996 22.129 46.2601C22.3895 46.5206 22.7427 46.6669 23.1111 46.6669H45.5694C45.9378 46.6669 46.291 46.5206 46.5515 46.2601C46.812 45.9996 46.9583 45.6464 46.9583 45.278V30.9169C46.9583 30.5485 46.812 30.1953 46.5515 29.9348C46.291 29.6743 45.9378 29.528 45.5694 29.528ZM44.1805 43.9169H24.5V32.3058H33.25V33.5697C33.25 33.938 33.3963 34.2913 33.6568 34.5518C33.9172 34.8122 34.2705 34.9586 34.6389 34.9586C35.0072 34.9586 35.3605 34.8122 35.621 34.5518C35.8814 34.2913 36.0277 33.938 36.0277 33.5697V32.3058H44.1805V43.9169Z" fill="url(#paint2_linear_190_817)"/>
  <defs>
    <linearGradient id="paint0_linear_190_817" x1="25" y1="9.13867" x2="25" y2="22.1942" gradientUnits="userSpaceOnUse">
      <stop stop-color="#FB9BA4"/>
      <stop offset="1" stop-color="#9685AE"/>
    </linearGradient>
    <linearGradient id="paint1_linear_190_817" x1="25.0001" y1="3.52783" x2="25.0001" y2="39.0138" gradientUnits="userSpaceOnUse">
      <stop stop-color="#FB9BA4"/>
      <stop offset="1" stop-color="#9685AE"/>
    </linearGradient>
    <linearGradient id="paint2_linear_190_817" x1="29.4027" y1="25" x2="29.4027" y2="46.6669" gradientUnits="userSpaceOnUse">
      <stop stop-color="#FB9BA4"/>
      <stop offset="1" stop-color="#9685AE"/>
    </linearGradient>
  </defs>
</svg>