<svg width="50" height="50" viewBox="0 0 50 50" fill="none" xmlns="http://www.w3.org/2000/svg">
  <g clip-path="url(#clip0_190_828)">
    <path d="M35.4167 6.95843C38.559 8.77272 41.1729 11.3762 42.9997 14.5111C44.8265 17.6461 45.8029 21.2038 45.8322 24.8321C45.8615 28.4603 44.9427 32.0333 43.1668 35.1974C41.3908 38.3614 38.8193 41.0068 35.7068 42.8716C32.5943 44.7364 29.0488 45.756 25.4211 45.8294C21.7935 45.9028 18.2096 45.0275 15.0242 43.2902C11.8387 41.5529 9.16231 39.0137 7.2598 35.9241C5.35729 32.8345 4.29468 29.3016 4.17716 25.6751L4.16675 25.0001L4.17716 24.3251C4.29384 20.7272 5.34081 17.2209 7.216 14.148C9.09119 11.0752 11.7306 8.54063 14.8769 6.79152C18.0233 5.04242 21.5691 4.13843 25.1688 4.16768C28.7686 4.19693 32.2993 5.15843 35.4167 6.95843ZM25.0001 12.5001C24.4898 12.5002 23.9973 12.6875 23.616 13.0266C23.2346 13.3657 22.991 13.8329 22.9313 14.3397L22.9167 14.5834V25.0001L22.9355 25.273C22.983 25.6345 23.1245 25.9771 23.3459 26.2668L23.5272 26.4751L29.7772 32.7251L29.973 32.8959C30.3384 33.1794 30.7876 33.3333 31.2501 33.3333C31.7125 33.3333 32.1618 33.1794 32.5272 32.8959L32.723 32.723L32.8959 32.5272C33.1794 32.1618 33.3332 31.7125 33.3332 31.2501C33.3332 30.7877 33.1794 30.3384 32.8959 29.973L32.723 29.7772L27.0834 24.1355V14.5834L27.0688 14.3397C27.0091 13.8329 26.7655 13.3657 26.3842 13.0266C26.0029 12.6875 25.5104 12.5002 25.0001 12.5001Z" fill="url(#paint0_linear_190_828)"/>
  </g>
  <defs>
    <linearGradient id="paint0_linear_190_828" x1="24.9998" y1="4.16699" x2="24.9998" y2="45.8337" gradientUnits="userSpaceOnUse">
      <stop stop-color="#FB9BA4"/>
      <stop offset="1" stop-color="#9486B0"/>
    </linearGradient>
    <clipPath id="clip0_190_828">
      <rect width="50" height="50" fill="white"/>
    </clipPath>
  </defs>
</svg>