<svg width="50" height="50" viewBox="0 0 50 50" fill="none" xmlns="http://www.w3.org/2000/svg">
  <path fill-rule="evenodd" clip-rule="evenodd" d="M29.7479 4.48341C28.9771 4.16675 27.9979 4.16675 26.0417 4.16675C24.0854 4.16675 23.1083 4.16675 22.3354 4.48341C21.3093 4.90469 20.4924 5.71626 20.0646 6.73966C19.8687 7.20425 19.7937 7.748 19.7625 8.53758C19.7486 9.10967 19.589 9.66877 19.2988 10.162C19.0087 10.6552 18.5975 11.0663 18.1042 11.3563C17.6015 11.6357 17.0365 11.7837 16.4615 11.7866C15.8865 11.7895 15.32 11.6473 14.8146 11.373C14.1104 11.0022 13.6 10.798 13.0958 10.7313C11.9928 10.5865 10.8772 10.883 9.99165 11.5563C9.32915 12.0605 8.83957 12.9022 7.86249 14.5834C6.88332 16.2647 6.39582 17.1042 6.2854 17.9272C6.13957 19.023 6.43957 20.1313 7.11874 21.0084C7.42707 21.4084 7.86249 21.7438 8.5354 22.1647C9.52915 22.7834 10.1667 23.8376 10.1667 25.0001C10.1667 26.1626 9.52915 27.2167 8.53749 27.8334C7.86249 28.2563 7.42707 28.5918 7.11665 28.9918C6.78141 29.425 6.53534 29.9203 6.39266 30.4492C6.24998 30.9781 6.21353 31.53 6.2854 32.073C6.39582 32.8938 6.88332 33.7355 7.86249 35.4167C8.84165 37.098 9.32915 37.9376 9.99165 38.4438C10.875 39.1167 11.9917 39.4126 13.0958 39.2688C13.6 39.2022 14.1104 38.998 14.8146 38.6272C15.3202 38.3525 15.8871 38.21 16.4625 38.213C17.038 38.2159 17.6034 38.3641 18.1062 38.6438C19.1187 39.2272 19.7187 40.3001 19.7625 41.4626C19.7937 42.2543 19.8687 42.7959 20.0646 43.2605C20.4896 44.2813 21.3062 45.0938 22.3354 45.5168C23.1062 45.8334 24.0854 45.8334 26.0417 45.8334C27.9979 45.8334 28.9771 45.8334 29.7479 45.5168C30.774 45.0955 31.5909 44.2839 32.0187 43.2605C32.2146 42.7959 32.2896 42.2543 32.3208 41.4626C32.3625 40.3001 32.9646 39.2251 33.9792 38.6438C34.4818 38.3645 35.0468 38.2164 35.6218 38.2135C36.1968 38.2106 36.7633 38.3529 37.2687 38.6272C37.9729 38.998 38.4833 39.2022 38.9875 39.2688C40.0917 39.4147 41.2083 39.1167 42.0917 38.4438C42.7542 37.9397 43.2437 37.098 44.2208 35.4167C45.2 33.7355 45.6875 32.8959 45.7979 32.073C45.8695 31.5298 45.8327 30.9778 45.6897 30.449C45.5466 29.9201 45.3002 29.4248 44.9646 28.9918C44.6562 28.5918 44.2208 28.2563 43.5479 27.8355C42.5542 27.2167 41.9167 26.1626 41.9167 25.0001C41.9167 23.8376 42.5542 22.7834 43.5458 22.1667C44.2208 21.7438 44.6562 21.4084 44.9667 21.0084C45.3019 20.5752 45.548 20.0799 45.6906 19.551C45.8333 19.0221 45.8698 18.4702 45.7979 17.9272C45.6875 17.1063 45.2 16.2647 44.2208 14.5834C43.2417 12.9022 42.7542 12.0626 42.0917 11.5563C41.2061 10.883 40.0905 10.5865 38.9875 10.7313C38.4833 10.798 37.9729 11.0022 37.2687 11.373C36.7631 11.6476 36.1962 11.7901 35.6208 11.7872C35.0453 11.7843 34.4799 11.6361 33.9771 11.3563C33.4841 11.066 33.0734 10.6549 32.7836 10.1616C32.4938 9.66843 32.3345 9.10947 32.3208 8.53758C32.2896 7.74592 32.2146 7.20425 32.0187 6.73966C31.807 6.23286 31.4974 5.77275 31.1078 5.38562C30.7182 4.99848 30.2561 4.69191 29.7479 4.48341ZM26.0417 31.2501C29.5208 31.2501 32.3396 28.4522 32.3396 25.0001C32.3396 21.548 29.5187 18.7501 26.0417 18.7501C22.5625 18.7501 19.7437 21.548 19.7437 25.0001C19.7437 28.4522 22.5646 31.2501 26.0417 31.2501Z" fill="url(#paint0_linear_299_1695)"/>
  <defs>
    <linearGradient id="paint0_linear_299_1695" x1="26.0415" y1="4.16675" x2="26.0415" y2="45.8334" gradientUnits="userSpaceOnUse">
      <stop stop-color="#FB9BA4"/>
      <stop offset="1" stop-color="#9486B0"/>
    </linearGradient>
  </defs>
</svg>