<svg width="35" height="35" viewBox="0 0 35 35" fill="none" xmlns="http://www.w3.org/2000/svg">
<g filter="url(#filter0_d_377_39)">
<circle cx="17.312" cy="13.356" r="12.816" fill="#D9D9D9" fill-opacity="0.32" shape-rendering="crispEdges"/>
</g>
<path d="M19.4748 11.576L18.1665 7.2684C17.9084 6.4229 16.7158 6.4229 16.4666 7.2684L15.1494 11.576H11.1889C10.3256 11.576 9.96957 12.6885 10.6727 13.1869L13.9123 15.5009L12.6396 19.6038C12.3815 20.4315 13.3427 21.099 14.028 20.5739L17.3121 18.0819L20.5962 20.5828C21.2815 21.1079 22.2427 20.4404 21.9846 19.6127L20.7119 15.5098L23.9515 13.1958C24.6546 12.6885 24.2986 11.5849 23.4353 11.5849H19.4748V11.576Z" fill="#18072B"/>
<defs>
<filter id="filter0_d_377_39" x="0.224032" y="0.540039" width="34.176" height="34.1758" filterUnits="userSpaceOnUse" color-interpolation-filters="sRGB">
<feFlood flood-opacity="0" result="BackgroundImageFix"/>
<feColorMatrix in="SourceAlpha" type="matrix" values="0 0 0 0 0 0 0 0 0 0 0 0 0 0 0 0 0 0 127 0" result="hardAlpha"/>
<feOffset dy="4.272"/>
<feGaussianBlur stdDeviation="2.136"/>
<feComposite in2="hardAlpha" operator="out"/>
<feColorMatrix type="matrix" values="0 0 0 0 0 0 0 0 0 0 0 0 0 0 0 0 0 0 0.25 0"/>
<feBlend mode="normal" in2="BackgroundImageFix" result="effect1_dropShadow_377_39"/>
<feBlend mode="normal" in="SourceGraphic" in2="effect1_dropShadow_377_39" result="shape"/>
</filter>
</defs>
</svg>
