<svg width="100" height="100" viewBox="0 0 100 100" fill="none" xmlns="http://www.w3.org/2000/svg">
  <path d="M60.4167 50.0002C60.4167 47.2375 59.3192 44.588 57.3657 42.6345C55.4122 40.681 52.7627 39.5835 50 39.5835C47.2373 39.5835 44.5878 40.681 42.6343 42.6345C40.6808 44.588 39.5833 47.2375 39.5833 50.0002C39.5833 54.1668 42.0417 57.6668 45.5417 59.3752L40.9167 63.9585C37.9079 61.999 35.6125 59.1199 34.3725 55.7502C33.1326 52.3805 33.0143 48.7003 34.0353 45.2579C35.0563 41.8155 37.162 38.795 40.0387 36.6463C42.9155 34.4976 46.4094 33.3356 50 33.3335C53.5906 33.3356 57.0845 34.4976 59.9613 36.6463C62.838 38.795 64.9437 41.8155 65.9647 45.2579C66.9857 48.7003 66.8674 52.3805 65.6275 55.7502C64.3875 59.1199 62.0921 61.999 59.0833 63.9585L54.5 59.3752C58 57.6668 60.4167 54.1668 60.4167 50.0002ZM50 8.3335C27.0833 8.3335 8.33333 27.0835 8.33333 50.0002C8.33333 62.7502 14.0833 74.1668 23.0833 81.7918L27.5417 77.3752C19.625 70.8335 14.5833 61.0002 14.5833 50.0002C14.5833 30.4585 30.4583 14.5835 50 14.5835C69.5417 14.5835 85.4167 30.4585 85.4167 50.0002C85.4167 61.0002 80.375 70.8335 72.4583 77.3752L76.9167 81.7918C85.9167 74.1252 91.6667 62.7502 91.6667 50.0002C91.6667 27.0835 72.9167 8.3335 50 8.3335ZM79.1667 50.0002C79.1667 33.8752 66.125 20.8335 50 20.8335C43.9345 20.8297 38.0189 22.7185 33.0777 26.2364C28.1366 29.7543 24.4161 34.7262 22.4348 40.459C20.4536 46.1919 20.3102 52.4 22.0248 58.2182C23.7394 64.0363 27.2265 69.1746 32 72.9168L36.4583 68.4585C30.7917 64.2502 27.0833 57.5835 27.0833 50.0002C27.0833 37.3752 37.375 27.0835 50 27.0835C62.625 27.0835 72.9167 37.3752 72.9167 50.0002C72.9167 57.5835 69.2083 64.2502 63.5417 68.4585L68.0417 72.9168C71.5078 70.1865 74.3097 66.7058 76.2367 62.7365C78.1636 58.7671 79.1654 54.4125 79.1667 50.0002ZM25 91.6668H75L50 66.6668L25 91.6668Z" fill="url(#paint0_linear_190_2259)"/>
  <defs>
    <linearGradient id="paint0_linear_190_2259" x1="50" y1="8.3335" x2="50" y2="91.6668" gradientUnits="userSpaceOnUse">
      <stop stop-color="#FB9BA4"/>
      <stop offset="0.416667" stop-color="#FE81A2"/>
      <stop offset="1" stop-color="#FF599D"/>
    </linearGradient>
  </defs>
</svg>