<svg width="49" height="49" viewBox="0 0 49 49" fill="none" xmlns="http://www.w3.org/2000/svg">
<g filter="url(#filter0_d_377_59)">
<circle cx="24.4315" cy="18.4453" r="18.3086" fill="#18072B"/>
</g>
<path d="M27.521 15.9024L25.652 9.74867C25.2833 8.54081 23.5796 8.54081 23.2236 9.74867L21.3419 15.9024H15.684C14.4507 15.9024 13.9422 17.4917 14.9466 18.2037L19.5746 21.5094L17.7564 27.3707C17.3877 28.5531 18.7609 29.5067 19.7399 28.7565L24.4314 25.1965L29.123 28.7692C30.102 29.5194 31.4752 28.5658 31.1064 27.3834L29.2883 21.5221L33.9163 18.2164C34.9207 17.4917 34.4122 15.9151 33.1789 15.9151H27.521V15.9024Z" fill="white"/>
<defs>
<filter id="filter0_d_377_59" x="0.0200214" y="0.136719" width="48.8229" height="48.8229" filterUnits="userSpaceOnUse" color-interpolation-filters="sRGB">
<feFlood flood-opacity="0" result="BackgroundImageFix"/>
<feColorMatrix in="SourceAlpha" type="matrix" values="0 0 0 0 0 0 0 0 0 0 0 0 0 0 0 0 0 0 127 0" result="hardAlpha"/>
<feOffset dy="6.10286"/>
<feGaussianBlur stdDeviation="3.05143"/>
<feComposite in2="hardAlpha" operator="out"/>
<feColorMatrix type="matrix" values="0 0 0 0 0 0 0 0 0 0 0 0 0 0 0 0 0 0 0.25 0"/>
<feBlend mode="normal" in2="BackgroundImageFix" result="effect1_dropShadow_377_59"/>
<feBlend mode="normal" in="SourceGraphic" in2="effect1_dropShadow_377_59" result="shape"/>
</filter>
</defs>
</svg>
